<svg width="20" height="20" viewBox="0 0 20 20" fill="none" xmlns="http://www.w3.org/2000/svg">
<path fill-rule="evenodd" clip-rule="evenodd" d="M10.0015 12.652L16.6302 19.2808C16.982 19.6325 17.459 19.8301 17.9565 19.8301C18.4539 19.8301 18.931 19.6325 19.2827 19.2808C19.6345 18.929 19.8321 18.452 19.8321 17.9545C19.8321 17.4571 19.6345 16.98 19.2827 16.6283L12.6515 9.99953L19.2815 3.37078C19.4555 3.19661 19.5936 2.98986 19.6878 2.76234C19.782 2.53481 19.8304 2.29096 19.8304 2.04471C19.8303 1.79846 19.7817 1.55463 19.6875 1.32715C19.5932 1.09967 19.455 0.892986 19.2808 0.718902C19.1067 0.544819 18.8999 0.406744 18.6724 0.312563C18.4449 0.218381 18.201 0.169936 17.9548 0.169994C17.7085 0.170052 17.4647 0.218611 17.2372 0.3129C17.0097 0.40719 16.803 0.545362 16.629 0.719528L10.0015 7.34828L3.37271 0.719528C3.19983 0.540366 2.993 0.397429 2.76429 0.299056C2.53558 0.200682 2.28957 0.148843 2.04061 0.146563C1.79165 0.144283 1.54473 0.191608 1.31425 0.285776C1.08378 0.379944 0.874368 0.519069 0.698237 0.695034C0.522106 0.870999 0.382784 1.08028 0.288398 1.31067C0.194013 1.54105 0.146456 1.78793 0.148501 2.03689C0.150546 2.28585 0.202153 2.53191 0.30031 2.76071C0.398468 2.98952 0.54121 3.19648 0.720208 3.36953L7.35146 9.99953L0.721459 16.6295C0.542461 16.8026 0.399718 17.0095 0.301561 17.2383C0.203403 17.4671 0.151796 17.7132 0.149751 17.9622C0.147705 18.2111 0.195263 18.458 0.289648 18.6884C0.384033 18.9188 0.523356 19.1281 0.699487 19.304C0.875618 19.48 1.08503 19.6191 1.3155 19.7133C1.54598 19.8074 1.7929 19.8548 2.04186 19.8525C2.29082 19.8502 2.53683 19.7984 2.76554 19.7C2.99425 19.6016 3.20108 19.4587 3.37396 19.2795L10.0015 12.652Z" fill="#161515"/>
</svg>
